<svg data-v-423bf9ae="" xmlns="http://www.w3.org/2000/svg" viewBox="0 0 927.5506764383023 60" class="font"><!----><!----><!----><g data-v-423bf9ae="" id="a8fc4333-14c6-4a5a-81e5-9e804c52f826" fill="black" transform="matrix(5.127139091491699,0,0,5.127139091491699,2.050856351852417,-11.023351669311523)"><path d="M7.32 5.40L7.32 5.40L7.32 5.40Q7.32 4.04 5.52 4.04L5.52 4.04L5.52 4.04Q4.40 4.04 3.24 4.72L3.24 4.72L3.24 4.72Q2.91 4.92 2.72 5.09L2.72 5.09L2.72 5.09Q2.53 5.26 2.36 5.26L2.36 5.26L2.36 5.26Q2.19 5.26 2.03 5.17L2.03 5.17L2.03 5.17Q1.87 5.09 1.75 4.96L1.75 4.96L1.75 4.96Q1.30 4.46 1.85 3.99L1.85 3.99L1.85 3.99Q2.67 3.29 4.57 3.08L4.57 3.08L4.57 3.08Q4.95 3.04 5.54 3.04L5.54 3.04L5.54 3.04Q6.13 3.04 6.78 3.25L6.78 3.25L6.78 3.25Q7.43 3.47 7.88 3.83L7.88 3.83L7.88 3.83Q8.76 4.56 8.76 5.69L8.76 5.69L8.76 5.69Q8.76 7.04 7.53 8.15L7.53 8.15L7.53 8.15Q6.47 9.12 5.01 9.54L5.01 9.54L5.01 9.54Q5.41 9.86 5.76 10.48L5.76 10.48L6.30 11.46L6.30 11.46Q7.02 12.79 7.59 12.91L7.59 12.91L7.59 12.91Q7.79 12.94 8.00 12.89L8.00 12.89L8.00 12.89Q8.21 12.84 8.27 12.85L8.27 12.85L8.27 12.85Q8.34 12.85 8.36 12.96L8.36 12.96L8.36 12.96Q8.39 13.07 8.31 13.23L8.31 13.23L8.31 13.23Q8.22 13.40 8.04 13.54L8.04 13.54L8.04 13.54Q7.61 13.88 7.10 13.85L7.10 13.85L7.10 13.85Q6.58 13.81 6.27 13.63L6.27 13.63L6.27 13.63Q5.95 13.46 5.70 13.19L5.70 13.19L5.70 13.19Q5.45 12.93 5.25 12.60L5.25 12.60L5.25 12.60Q5.06 12.27 4.89 11.93L4.89 11.93L4.59 11.26L4.59 11.26Q4.44 10.93 4.32 10.69L4.32 10.69L4.32 10.69Q4.20 10.46 4.11 10.26L4.11 10.26L4.11 10.26Q4.02 10.07 3.91 9.91L3.91 9.91L3.91 9.91Q3.68 9.56 3.32 9.46L3.32 9.46L3.32 9.46Q1.88 13.15 0.40 13.67L0.40 13.67L0.40 13.67Q0.27 13.72 0.15 13.72L0.15 13.72L0.15 13.72Q0.02 13.72-0.08 13.68L-0.08 13.68L-0.08 13.68Q-0.18 13.63-0.25 13.56L-0.25 13.56L-0.25 13.56Q-0.40 13.43-0.40 13.28L-0.40 13.28L-0.40 13.28Q-0.40 13.12-0.29 13.04L-0.29 13.04L-0.29 13.04Q0.73 12.30 1.98 8.70L1.98 8.70L2.39 7.54L2.39 7.54Q3.10 5.54 3.58 5.08L3.58 5.08L3.58 5.08Q3.75 4.95 3.94 4.95L3.94 4.95L3.94 4.95Q4.12 4.95 4.26 5.01L4.26 5.01L4.26 5.01Q4.40 5.07 4.50 5.15L4.50 5.15L4.50 5.15Q4.73 5.36 4.73 5.57L4.73 5.57L4.73 5.57Q4.73 5.78 4.64 5.95L4.64 5.95L4.64 5.95Q4.55 6.12 4.43 6.42L4.43 6.42L4.43 6.42Q4.09 7.29 3.91 7.82L3.91 7.82L3.56 8.80L3.56 8.80Q5.02 8.61 6.14 7.66L6.14 7.66L6.14 7.66Q7.32 6.67 7.32 5.40ZM12.91 4.99L12.91 4.99L12.91 4.99Q12.76 5.15 12.56 5.25L12.56 5.25L12.56 5.25Q12.37 5.35 12.16 5.38L12.16 5.38L12.16 5.38Q11.95 5.40 11.76 5.31L11.76 5.31L11.76 5.31Q11.57 5.22 11.44 5.06L11.44 5.06L11.44 5.06Q11.14 4.72 11.14 4.37L11.14 4.37L11.14 4.37Q11.14 4.02 11.26 3.85L11.26 3.85L11.26 3.85Q11.37 3.67 11.54 3.56L11.54 3.56L11.54 3.56Q11.87 3.35 12.16 3.35L12.16 3.35L12.16 3.35Q12.45 3.35 12.61 3.39L12.61 3.39L12.61 3.39Q12.77 3.43 12.91 3.53L12.91 3.53L12.91 3.53Q13.24 3.75 13.24 4.08L13.24 4.08L13.24 4.08Q13.24 4.40 13.15 4.62L13.15 4.62L13.15 4.62Q13.06 4.83 12.91 4.99ZM11.50 12.39L11.50 12.39L11.50 12.39Q11.68 12.39 11.68 12.63L11.68 12.63L11.68 12.63Q11.68 12.93 11.40 13.26L11.40 13.26L11.40 13.26Q10.99 13.74 10.30 13.74L10.30 13.74L10.30 13.74Q9.51 13.74 9.21 13.10L9.21 13.10L9.21 13.10Q9.11 12.87 9.11 12.55L9.11 12.55L9.11 12.55Q9.11 12.23 9.22 11.84L9.22 11.84L9.22 11.84Q9.33 11.44 9.50 11.01L9.50 11.01L9.50 11.01Q9.67 10.58 9.86 10.13L9.86 10.13L10.23 9.27L10.23 9.27Q10.62 8.31 10.62 8.00L10.62 8.00L10.62 8.00Q10.62 7.69 10.56 7.59L10.56 7.59L10.56 7.59Q10.49 7.49 10.42 7.44L10.42 7.44L10.28 7.34L10.28 7.34Q10.21 7.29 10.21 7.17L10.21 7.17L10.21 7.17Q10.21 7.05 10.31 6.95L10.31 6.95L10.31 6.95Q10.40 6.84 10.55 6.75L10.55 6.75L10.55 6.75Q10.86 6.60 11.27 6.60L11.27 6.60L11.27 6.60Q12.27 6.60 12.27 7.12L12.27 7.12L12.27 7.12Q12.27 7.74 11.95 8.53L11.95 8.53L11.95 8.53Q11.63 9.32 11.40 9.80L11.40 9.80L10.99 10.75L10.99 10.75Q10.54 11.79 10.54 12.24L10.54 12.24L10.54 12.24Q10.54 12.54 10.84 12.54L10.84 12.54L10.84 12.54Q11.14 12.54 11.29 12.47L11.29 12.47L11.29 12.47Q11.44 12.39 11.50 12.39ZM13.17 11.31L13.17 11.31L13.17 11.31Q13.18 10.72 13.35 10.13L13.35 10.13L13.35 10.13Q13.53 9.54 13.82 9.01L13.82 9.01L13.82 9.01Q14.11 8.48 14.51 8.04L14.51 8.04L14.51 8.04Q14.91 7.59 15.38 7.27L15.38 7.27L15.38 7.27Q16.37 6.60 17.45 6.60L17.45 6.60L17.45 6.60Q18.57 6.60 18.98 7.49L18.98 7.49L18.98 7.49Q19.12 7.81 19.11 8.22L19.11 8.22L19.11 8.22Q19.10 8.63 18.98 8.97L18.98 8.97L18.98 8.97Q18.85 9.30 18.67 9.57L18.67 9.57L18.67 9.57Q18.25 10.17 17.83 10.17L17.83 10.17L17.83 10.17Q17.36 10.17 17.13 9.91L17.13 9.91L17.13 9.91Q16.93 9.69 17.01 9.39L17.01 9.39L17.01 9.39Q17.03 9.30 17.13 9.23L17.13 9.23L17.13 9.23Q17.23 9.15 17.39 9.00L17.39 9.00L17.39 9.00Q17.83 8.53 17.86 7.91L17.86 7.91L17.86 7.91Q17.87 7.49 17.34 7.49L17.34 7.49L17.34 7.49Q16.76 7.49 16.13 8.13L16.13 8.13L16.13 8.13Q15.22 9.06 14.84 10.53L14.84 10.53L14.84 10.53Q14.51 11.80 14.96 12.39L14.96 12.39L14.96 12.39Q15.23 12.73 15.69 12.73L15.69 12.73L15.69 12.73Q16.46 12.73 17.18 12.18L17.18 12.18L17.18 12.18Q17.40 12.01 17.53 11.83L17.53 11.83L17.53 11.83Q17.67 11.66 17.79 11.66L17.79 11.66L17.79 11.66Q17.90 11.66 17.98 11.77L17.98 11.77L17.98 11.77Q18.06 11.88 18.06 12.06L18.06 12.06L18.06 12.06Q18.06 12.46 17.70 12.85L17.70 12.85L17.70 12.85Q16.77 13.74 15.46 13.74L15.46 13.74L15.46 13.74Q14.35 13.74 13.74 13.10L13.74 13.10L13.74 13.10Q13.14 12.48 13.17 11.31ZM24.67 7.89L24.67 7.89L24.67 7.89Q24.29 7.89 23.32 9.04L23.32 9.04L22.76 9.73L21.66 11.16L21.66 11.16Q21.27 11.92 21.04 12.41L21.04 12.41L20.67 13.21L20.67 13.21Q20.53 13.50 20.42 13.62L20.42 13.62L20.42 13.62Q20.32 13.74 20.14 13.74L20.14 13.74L20.14 13.74Q19.95 13.74 19.79 13.68L19.79 13.68L19.79 13.68Q19.62 13.61 19.50 13.51L19.50 13.51L19.50 13.51Q19.24 13.29 19.24 13.03L19.24 13.03L19.24 13.03Q19.24 12.93 19.38 12.63L19.38 12.63L19.65 12.07L19.65 12.07Q20.93 9.44 21.97 5.40L21.97 5.40L21.97 5.40Q22.35 3.91 22.52 2.72L22.52 2.72L22.52 2.72Q22.60 2.15 23.08 2.15L23.08 2.15L23.08 2.15Q23.40 2.15 23.60 2.30L23.60 2.30L23.60 2.30Q24.00 2.59 23.99 2.93L23.99 2.93L23.99 2.93Q23.97 3.26 23.89 3.68L23.89 3.68L23.89 3.68Q23.81 4.09 23.68 4.58L23.68 4.58L23.68 4.58Q23.55 5.07 23.39 5.61L23.39 5.61L23.39 5.61Q22.93 6.99 22.72 7.59L22.72 7.59L22.72 7.59Q22.05 9.43 21.89 9.75L21.89 9.75L21.89 9.75Q21.99 9.63 22.16 9.41L22.16 9.41L22.16 9.41Q23.40 7.78 23.69 7.46L23.69 7.46L23.69 7.46Q23.99 7.14 24.19 6.97L24.19 6.97L24.19 6.97Q24.62 6.60 25.29 6.60L25.29 6.60L25.29 6.60Q25.83 6.60 26.15 6.96L26.15 6.96L26.15 6.96Q26.46 7.31 26.46 7.72L26.46 7.72L26.46 7.72Q26.46 8.13 26.37 8.47L26.37 8.47L26.37 8.47Q26.28 8.80 26.13 9.14L26.13 9.14L26.13 9.14Q25.99 9.48 25.82 9.84L25.82 9.84L25.48 10.56L25.48 10.56Q25.00 11.65 25.00 12.17L25.00 12.17L25.00 12.17Q25.00 12.54 25.30 12.54L25.30 12.54L25.30 12.54Q25.59 12.54 25.82 12.42L25.82 12.42L25.82 12.42Q26.06 12.30 26.13 12.30L26.13 12.30L26.13 12.30Q26.27 12.30 26.27 12.44L26.27 12.44L26.27 12.44Q26.27 13.05 25.66 13.46L25.66 13.46L25.66 13.46Q25.23 13.74 24.88 13.74L24.88 13.74L24.88 13.74Q24.53 13.74 24.31 13.67L24.31 13.67L24.31 13.67Q24.08 13.60 23.90 13.43L23.90 13.43L23.90 13.43Q23.50 13.06 23.50 12.35L23.50 12.35L23.50 12.35Q23.50 11.57 24.00 10.40L24.00 10.40L24.74 8.83L24.74 8.83Q24.95 8.39 24.95 8.14L24.95 8.14L24.95 8.14Q24.95 7.89 24.67 7.89ZM32.66 7.89L32.66 7.89L32.66 7.89Q32.27 7.89 31.21 9.04L31.21 9.04L31.21 9.04Q30.43 9.93 30.07 10.38L30.07 10.38L29.46 11.16L29.46 11.16Q29.06 11.92 28.83 12.41L28.83 12.41L28.46 13.21L28.46 13.21Q28.32 13.50 28.22 13.62L28.22 13.62L28.22 13.62Q28.11 13.74 27.93 13.74L27.93 13.74L27.93 13.74Q27.75 13.74 27.58 13.68L27.58 13.68L27.58 13.68Q27.41 13.61 27.29 13.51L27.29 13.51L27.29 13.51Q27.03 13.29 27.03 13.03L27.03 13.03L27.03 13.03Q27.03 12.93 27.18 12.63L27.18 12.63L27.44 12.07L27.44 12.07Q27.56 11.83 27.73 11.44L27.73 11.44L28.11 10.51L28.11 10.51Q28.92 8.49 28.92 7.90L28.92 7.90L28.92 7.90Q28.92 7.59 28.71 7.44L28.71 7.44L28.57 7.34L28.57 7.34Q28.51 7.29 28.51 7.17L28.51 7.17L28.51 7.17Q28.51 7.05 28.60 6.95L28.60 6.95L28.60 6.95Q28.69 6.84 28.84 6.75L28.84 6.75L28.84 6.75Q29.15 6.60 29.46 6.60L29.46 6.60L29.46 6.60Q29.77 6.60 29.95 6.67L29.95 6.67L29.95 6.67Q30.13 6.73 30.26 6.85L30.26 6.85L30.26 6.85Q30.52 7.09 30.52 7.35L30.52 7.35L30.52 7.35Q30.52 7.61 30.45 7.87L30.45 7.87L30.45 7.87Q30.38 8.13 30.28 8.40L30.28 8.40L30.28 8.40Q30.17 8.67 30.06 8.93L30.06 8.93L30.06 8.93Q29.78 9.52 29.72 9.65L29.72 9.65L29.72 9.65Q29.65 9.78 29.68 9.75L29.68 9.75L29.68 9.75Q30.93 8.13 31.19 7.83L31.19 7.83L31.19 7.83Q31.71 7.23 32.01 7L32.01 7L32.01 7Q32.55 6.60 33.03 6.60L33.03 6.60L33.03 6.60Q33.51 6.60 33.80 6.90L33.80 6.90L33.80 6.90Q34.08 7.20 34.08 7.69L34.08 7.69L34.08 7.69Q34.08 8.12 33.87 8.70L33.87 8.70L33.87 8.70Q33.65 9.28 33.57 9.52L33.57 9.52L34.58 8.19L35.14 7.52L35.14 7.52Q35.64 6.95 36.03 6.77L36.03 6.77L36.03 6.77Q36.41 6.60 36.65 6.60L36.65 6.60L36.65 6.60Q36.89 6.60 37.13 6.69L37.13 6.69L37.13 6.69Q37.37 6.77 37.53 6.94L37.53 6.94L37.53 6.94Q37.88 7.27 37.88 7.83L37.88 7.83L37.88 7.83Q37.88 8.36 37.63 8.92L37.63 8.92L37.63 8.92Q37.39 9.48 37.20 9.84L37.20 9.84L37.20 9.84Q37.02 10.20 36.85 10.56L36.85 10.56L36.85 10.56Q36.35 11.65 36.35 12.17L36.35 12.17L36.35 12.17Q36.35 12.54 36.65 12.54L36.65 12.54L36.65 12.54Q36.93 12.54 37.17 12.42L37.17 12.42L37.17 12.42Q37.41 12.30 37.47 12.30L37.47 12.30L37.47 12.30Q37.62 12.30 37.62 12.44L37.62 12.44L37.62 12.44Q37.62 13.05 37.00 13.46L37.00 13.46L37.00 13.46Q36.58 13.74 36.23 13.74L36.23 13.74L36.23 13.74Q35.89 13.74 35.68 13.66L35.68 13.66L35.68 13.66Q35.46 13.58 35.29 13.40L35.29 13.40L35.29 13.40Q34.91 13.00 34.91 12.41L34.91 12.41L34.91 12.41Q34.91 11.81 35.06 11.31L35.06 11.31L35.06 11.31Q35.21 10.81 35.42 10.35L35.42 10.35L35.42 10.35Q35.62 9.88 35.83 9.48L35.83 9.48L35.83 9.48Q36.04 9.09 36.15 8.86L36.15 8.86L36.15 8.86Q36.37 8.38 36.37 8.16L36.37 8.16L36.37 8.16Q36.37 7.89 36.09 7.89L36.09 7.89L36.09 7.89Q35.72 7.89 34.76 9.11L34.76 9.11L34.76 9.11Q34.04 10.06 33.76 10.48L33.76 10.48L33.28 11.16L33.28 11.16Q32.89 11.92 32.68 12.41L32.68 12.41L32.33 13.21L32.33 13.21Q32.20 13.50 32.10 13.62L32.10 13.62L32.10 13.62Q32.01 13.74 31.83 13.74L31.83 13.74L31.83 13.74Q31.66 13.74 31.50 13.69L31.50 13.69L31.50 13.69Q31.34 13.63 31.23 13.54L31.23 13.54L31.23 13.54Q30.96 13.34 30.96 13.12L30.96 13.12L30.96 13.12Q30.96 12.90 31.11 12.51L31.11 12.51L31.11 12.51Q31.25 12.13 31.47 11.65L31.47 11.65L32.43 9.63L32.43 9.63Q32.94 8.50 32.94 8.19L32.94 8.19L32.94 8.19Q32.94 7.89 32.66 7.89ZM33.34 9.82L33.34 9.82L33.34 9.82Q33.35 9.82 33.35 9.81L33.35 9.81L33.35 9.80L33.35 9.80Q33.34 9.81 33.34 9.82ZM39.55 13.21L39.55 13.21L39.55 13.21Q39.26 12.93 39.09 12.51L39.09 12.51L39.09 12.51Q38.93 12.09 38.92 11.52L38.92 11.52L38.92 11.52Q38.92 10.94 39.06 10.36L39.06 10.36L39.06 10.36Q39.21 9.77 39.48 9.22L39.48 9.22L39.48 9.22Q39.75 8.67 40.13 8.20L40.13 8.20L40.13 8.20Q40.51 7.72 40.97 7.36L40.97 7.36L40.97 7.36Q41.97 6.60 43.04 6.60L43.04 6.60L43.04 6.60Q44.45 6.60 44.95 7.83L44.95 7.83L44.95 7.83Q45.30 8.73 44.99 10.00L44.99 10.00L44.99 10.00Q44.70 11.17 43.93 12.15L43.93 12.15L43.93 12.15Q43.18 13.13 42.14 13.54L42.14 13.54L42.14 13.54Q41.62 13.74 41.12 13.74L41.12 13.74L41.12 13.74Q40.62 13.74 40.23 13.61L40.23 13.61L40.23 13.61Q39.83 13.48 39.55 13.21ZM40.85 9.89L40.85 9.89L40.85 9.89Q40.65 10.40 40.53 10.93L40.53 10.93L40.53 10.93Q40.41 11.46 40.41 11.94L40.41 11.94L40.41 11.94Q40.42 12.41 40.56 12.68L40.56 12.68L40.56 12.68Q40.70 12.95 41.02 12.95L41.02 12.95L41.02 12.95Q41.33 12.95 41.63 12.74L41.63 12.74L41.63 12.74Q41.94 12.52 42.23 12.17L42.23 12.17L42.23 12.17Q42.51 11.81 42.77 11.35L42.77 11.35L42.77 11.35Q43.02 10.88 43.21 10.38L43.21 10.38L43.21 10.38Q43.63 9.28 43.61 8.42L43.61 8.42L43.61 8.42Q43.61 7.67 43.31 7.46L43.31 7.46L43.31 7.46Q43.18 7.38 42.96 7.38L42.96 7.38L42.96 7.38Q42.74 7.38 42.45 7.58L42.45 7.58L42.45 7.58Q42.16 7.79 41.88 8.13L41.88 8.13L41.88 8.13Q41.59 8.47 41.32 8.93L41.32 8.93L41.32 8.93Q41.06 9.39 40.85 9.89ZM51.04 7.89L51.04 7.89L51.04 7.89Q50.83 7.89 50.44 8.30L50.44 8.30L50.44 8.30Q50.05 8.70 49.77 9.04L49.77 9.04L49.18 9.73L48.06 11.16L48.06 11.16Q47.67 11.92 47.44 12.41L47.44 12.41L47.07 13.21L47.07 13.21Q46.93 13.50 46.82 13.62L46.82 13.62L46.82 13.62Q46.72 13.74 46.54 13.74L46.54 13.74L46.54 13.74Q46.35 13.74 46.19 13.68L46.19 13.68L46.19 13.68Q46.02 13.61 45.90 13.51L45.90 13.51L45.90 13.51Q45.64 13.29 45.64 13.03L45.64 13.03L45.64 13.03Q45.64 12.93 45.79 12.63L45.79 12.63L46.05 12.07L46.05 12.07Q46.17 11.83 46.33 11.44L46.33 11.44L46.72 10.51L46.72 10.51Q47.52 8.49 47.52 7.90L47.52 7.90L47.52 7.90Q47.52 7.59 47.32 7.44L47.32 7.44L47.18 7.34L47.18 7.34Q47.11 7.29 47.11 7.17L47.11 7.17L47.11 7.17Q47.11 7.05 47.21 6.95L47.21 6.95L47.21 6.95Q47.30 6.84 47.45 6.75L47.45 6.75L47.45 6.75Q47.76 6.60 48.07 6.60L48.07 6.60L48.07 6.60Q48.38 6.60 48.55 6.67L48.55 6.67L48.55 6.67Q48.72 6.73 48.84 6.85L48.84 6.85L48.84 6.85Q49.09 7.09 49.09 7.35L49.09 7.35L49.09 7.35Q49.09 7.61 49.02 7.87L49.02 7.87L49.02 7.87Q48.96 8.13 48.86 8.40L48.86 8.40L48.86 8.40Q48.76 8.67 48.65 8.93L48.65 8.93L48.65 8.93Q48.54 9.19 48.45 9.39L48.45 9.39L48.32 9.68L48.32 9.68Q48.26 9.79 48.29 9.75L48.29 9.75L48.29 9.75Q49.05 8.70 49.29 8.39L49.29 8.39L49.77 7.82L49.77 7.82Q50.29 7.21 50.59 7.01L50.59 7.01L50.59 7.01Q51.20 6.60 51.55 6.60L51.55 6.60L51.55 6.60Q51.90 6.60 52.14 6.69L52.14 6.69L52.14 6.69Q52.38 6.77 52.55 6.94L52.55 6.94L52.55 6.94Q52.93 7.29 52.93 7.83L52.93 7.83L52.93 7.83Q52.93 8.37 52.68 8.96L52.68 8.96L52.68 8.96Q52.44 9.54 52.26 9.91L52.26 9.91L52.26 9.91Q52.08 10.27 51.91 10.65L51.91 10.65L51.91 10.65Q51.40 11.79 51.40 12.31L51.40 12.31L51.40 12.31Q51.40 12.54 51.77 12.54L51.77 12.54L51.77 12.54Q52.06 12.54 52.29 12.42L52.29 12.42L52.29 12.42Q52.53 12.30 52.60 12.30L52.60 12.30L52.60 12.30Q52.74 12.30 52.74 12.44L52.74 12.44L52.74 12.44Q52.74 13.05 52.12 13.46L52.12 13.46L52.12 13.46Q51.70 13.74 51.35 13.74L51.35 13.74L51.35 13.74Q51.00 13.74 50.77 13.67L50.77 13.67L50.77 13.67Q50.54 13.59 50.37 13.43L50.37 13.43L50.37 13.43Q49.96 13.06 49.96 12.41L49.96 12.41L49.96 12.41Q49.96 11.62 50.46 10.43L50.46 10.43L50.46 10.43Q50.83 9.62 50.98 9.32L50.98 9.32L51.21 8.83L51.21 8.83Q51.42 8.39 51.42 8.14L51.42 8.14L51.42 8.14Q51.42 7.89 51.04 7.89ZM60.80 12.29L60.80 12.29L60.80 12.29Q60.94 12.29 60.94 12.44L60.94 12.44L60.94 12.44Q60.94 13.03 60.33 13.45L60.33 13.45L60.33 13.45Q59.93 13.74 59.57 13.74L59.57 13.74L59.57 13.74Q59.21 13.74 59.00 13.66L59.00 13.66L59.00 13.66Q58.79 13.58 58.62 13.40L58.62 13.40L58.62 13.40Q58.24 12.99 58.24 12.27L58.24 12.27L58.24 12.27Q58.24 12.13 58.29 11.81L58.29 11.81L58.29 11.81Q57.74 12.67 57.34 13.02L57.34 13.02L57.34 13.02Q56.54 13.74 55.77 13.74L55.77 13.74L55.77 13.74Q54.56 13.74 54.19 12.65L54.19 12.65L54.19 12.65Q54.05 12.24 54.05 11.63L54.05 11.63L54.05 11.63Q54.05 11.03 54.24 10.40L54.24 10.40L54.24 10.40Q54.42 9.78 54.74 9.22L54.74 9.22L54.74 9.22Q55.06 8.66 55.48 8.18L55.48 8.18L55.48 8.18Q55.90 7.70 56.36 7.34L56.36 7.34L56.36 7.34Q57.36 6.60 58.17 6.60L58.17 6.60L58.17 6.60Q58.97 6.60 59.46 7.25L59.46 7.25L59.46 7.25Q60.65 3.18 61.25 2.45L61.25 2.45L61.25 2.45Q61.50 2.15 61.78 2.15L61.78 2.15L61.78 2.15Q62.25 2.15 62.49 2.41L62.49 2.41L62.49 2.41Q62.56 2.50 62.56 2.59L62.56 2.59L62.56 2.59Q62.56 2.68 62.45 2.92L62.45 2.92L62.45 2.92Q62.34 3.16 62.13 3.69L62.13 3.69L62.13 3.69Q61.52 5.30 61.28 6.04L61.28 6.04L61.28 6.04Q60.65 7.95 60.43 8.67L60.43 8.67L60.05 9.93L60.05 9.93Q59.57 11.62 59.57 12.08L59.57 12.08L59.57 12.08Q59.57 12.54 59.90 12.54L59.90 12.54L59.90 12.54Q60.21 12.54 60.40 12.46L60.40 12.46L60.66 12.33L60.66 12.33Q60.73 12.29 60.80 12.29ZM56.10 12.71L56.10 12.71L56.10 12.71Q56.81 12.71 57.72 11.34L57.72 11.34L57.72 11.34Q58.67 9.92 59.04 8.24L59.04 8.24L59.04 8.24Q59.01 7.78 58.65 7.56L58.65 7.56L58.65 7.56Q58.53 7.49 58.28 7.49L58.28 7.49L58.28 7.49Q58.03 7.49 57.70 7.67L57.70 7.67L57.70 7.67Q57.37 7.85 57.06 8.16L57.06 8.16L57.06 8.16Q56.75 8.46 56.48 8.88L56.48 8.88L56.48 8.88Q56.21 9.29 56.01 9.75L56.01 9.75L56.01 9.75Q55.58 10.77 55.58 11.74L55.58 11.74L55.58 11.74Q55.58 12.71 56.10 12.71ZM66.25 10.80L66.25 10.80L66.25 10.60L66.25 10.60Q66.33 8.56 67.29 6.74L67.29 6.74L67.29 6.74Q68.17 5.08 69.51 4.05L69.51 4.05L69.51 4.05Q70.83 3.04 72.09 3.04L72.09 3.04L72.09 3.04Q73.05 3.04 73.60 3.71L73.60 3.71L73.60 3.71Q74.07 4.28 74.07 5.11L74.07 5.11L74.07 5.11Q74.07 6.11 73.34 7.08L73.34 7.08L73.34 7.08Q72.92 7.64 72.44 7.89L72.44 7.89L72.44 7.89Q72.21 8.01 72.02 8.01L72.02 8.01L72.02 8.01Q71.83 8.01 71.66 7.93L71.66 7.93L71.66 7.93Q71.50 7.85 71.37 7.72L71.37 7.72L71.37 7.72Q71.12 7.46 71.12 7.25L71.12 7.25L71.12 7.25Q71.12 7.03 71.23 6.95L71.23 6.95L71.23 6.95Q72.35 6.15 72.75 5.29L72.75 5.29L72.75 5.29Q72.91 4.96 72.91 4.65L72.91 4.65L72.91 4.65Q72.91 3.99 72.28 3.99L72.28 3.99L72.28 3.99Q71.30 3.99 70.25 5.06L70.25 5.06L70.25 5.06Q69.28 6.05 68.61 7.55L68.61 7.55L68.61 7.55Q67.92 9.08 67.88 10.37L67.88 10.37L67.87 10.63L67.87 10.63Q67.87 12.17 68.52 12.65L68.52 12.65L68.52 12.65Q68.76 12.82 69.08 12.82L69.08 12.82L69.08 12.82Q69.41 12.82 69.69 12.74L69.69 12.74L69.69 12.74Q69.98 12.65 70.27 12.51L70.27 12.51L70.27 12.51Q70.73 12.27 71.46 11.68L71.46 11.68L71.46 11.68Q71.67 11.51 71.82 11.73L71.82 11.73L71.82 11.73Q71.94 11.91 71.94 12.14L71.94 12.14L71.94 12.14Q71.94 12.53 71.84 12.67L71.84 12.67L71.84 12.67Q71.73 12.81 71.47 13.00L71.47 13.00L71.47 13.00Q71.22 13.19 70.85 13.36L70.85 13.36L70.85 13.36Q69.99 13.74 69.16 13.74L69.16 13.74L69.16 13.74Q68.33 13.74 67.83 13.54L67.83 13.54L67.83 13.54Q67.32 13.34 66.97 12.96L66.97 12.96L66.97 12.96Q66.25 12.17 66.25 10.80ZM79.92 12.33L79.92 12.33L79.92 12.33Q80.08 12.33 80.08 12.48L80.08 12.48L80.08 12.48Q80.08 13.08 79.49 13.48L79.49 13.48L79.49 13.48Q79.09 13.74 78.56 13.74L78.56 13.74L78.56 13.74Q78.12 13.74 77.89 13.54L77.89 13.54L77.89 13.54Q77.47 13.17 77.47 12.63L77.47 12.63L77.47 12.63Q77.47 11.96 78.04 10.56L78.04 10.56L78.04 10.56Q76.99 11.98 76.56 12.45L76.56 12.45L76.56 12.45Q76.14 12.92 75.82 13.18L75.82 13.18L75.82 13.18Q75.14 13.74 74.59 13.74L74.59 13.74L74.59 13.74Q73.74 13.74 73.46 13.01L73.46 13.01L73.46 13.01Q73.38 12.78 73.38 12.49L73.38 12.49L73.38 12.49Q73.38 12.20 73.48 11.84L73.48 11.84L73.48 11.84Q73.58 11.48 73.73 11.09L73.73 11.09L73.73 11.09Q73.89 10.71 74.07 10.29L74.07 10.29L74.44 9.47L74.44 9.47Q75.15 7.90 74.97 7.60L74.97 7.60L74.97 7.60Q74.89 7.47 74.66 7.34L74.66 7.34L74.66 7.34Q74.58 7.29 74.58 7.17L74.58 7.17L74.58 7.17Q74.58 7.05 74.68 6.95L74.68 6.95L74.68 6.95Q74.78 6.84 74.94 6.75L74.94 6.75L74.94 6.75Q75.27 6.60 75.61 6.60L75.61 6.60L75.61 6.60Q75.94 6.60 76.11 6.67L76.11 6.67L76.11 6.67Q76.29 6.74 76.40 6.85L76.40 6.85L76.40 6.85Q76.62 7.08 76.62 7.35L76.62 7.35L76.62 7.35Q76.62 7.62 76.54 7.96L76.54 7.96L76.54 7.96Q76.45 8.30 76.30 8.70L76.30 8.70L76.30 8.70Q76.16 9.09 75.99 9.52L75.99 9.52L75.99 9.52Q75.52 10.62 75.35 10.98L75.35 10.98L75.10 11.50L75.10 11.50Q74.89 11.98 74.89 12.17L74.89 12.17L74.89 12.17Q74.89 12.36 74.95 12.44L74.95 12.44L74.95 12.44Q75.01 12.52 75.17 12.52L75.17 12.52L75.17 12.52Q75.33 12.52 75.54 12.37L75.54 12.37L75.54 12.37Q75.76 12.22 76.01 11.96L76.01 11.96L76.01 11.96Q76.26 11.71 76.54 11.38L76.54 11.38L76.54 11.38Q76.81 11.05 77.07 10.69L77.07 10.69L77.07 10.69Q77.58 9.99 77.82 9.57L77.82 9.57L77.82 9.57Q79.27 7.01 79.37 6.89L79.37 6.89L79.37 6.89Q79.58 6.60 79.81 6.60L79.81 6.60L79.81 6.60Q80.04 6.60 80.21 6.65L80.21 6.65L80.21 6.65Q80.38 6.70 80.51 6.79L80.51 6.79L80.51 6.79Q80.79 7.01 80.69 7.22L80.69 7.22L80.69 7.22Q79.02 10.70 78.89 11.59L78.89 11.59L78.89 11.59Q78.86 11.90 78.86 12.02L78.86 12.02L78.86 12.02Q78.86 12.54 79.17 12.54L79.17 12.54L79.17 12.54Q79.47 12.54 79.66 12.43L79.66 12.43L79.66 12.43Q79.85 12.33 79.92 12.33ZM80.96 12.47L80.96 12.47L80.96 12.47Q80.96 12.26 81.05 12.08L81.05 12.08L81.05 12.08Q81.14 11.89 81.28 11.77L81.28 11.77L81.28 11.77Q81.57 11.50 81.88 11.50L81.88 11.50L81.88 11.50Q82.15 11.50 82.15 11.79L82.15 11.79L82.15 11.79Q82.15 12.50 82.63 12.78L82.63 12.78L82.63 12.78Q82.80 12.88 82.98 12.88L82.98 12.88L82.98 12.88Q83.17 12.88 83.30 12.84L83.30 12.84L83.30 12.84Q83.43 12.80 83.54 12.71L83.54 12.71L83.54 12.71Q83.78 12.51 83.78 12.24L83.78 12.24L83.78 12.24Q83.78 11.96 83.66 11.73L83.66 11.73L83.66 11.73Q83.54 11.50 83.35 11.25L83.35 11.25L82.96 10.71L82.96 10.71Q82.14 9.61 82.14 8.69L82.14 8.69L82.14 8.69Q82.14 7.92 82.79 7.30L82.79 7.30L82.79 7.30Q83.53 6.60 84.68 6.60L84.68 6.60L84.68 6.60Q85.70 6.60 86.26 7.10L86.26 7.10L86.26 7.10Q86.73 7.50 86.73 8.02L86.73 8.02L86.73 8.02Q86.73 8.56 86.32 8.88L86.32 8.88L86.32 8.88Q85.95 9.17 85.58 9.09L85.58 9.09L85.58 9.09Q85.42 9.06 85.33 8.92L85.33 8.92L85.33 8.92Q85.24 8.79 85.29 8.62L85.29 8.62L85.29 8.62Q85.35 8.45 85.35 8.26L85.35 8.26L85.35 8.26Q85.35 8.08 85.28 7.92L85.28 7.92L85.28 7.92Q85.21 7.77 85.09 7.66L85.09 7.66L85.09 7.66Q84.85 7.43 84.59 7.43L84.59 7.43L84.59 7.43Q84.33 7.43 84.16 7.49L84.16 7.49L84.16 7.49Q83.99 7.55 83.86 7.66L83.86 7.66L83.86 7.66Q83.59 7.90 83.59 8.26L83.59 8.26L83.59 8.26Q83.59 8.62 83.71 8.88L83.71 8.88L83.71 8.88Q83.84 9.14 84.02 9.40L84.02 9.40L84.02 9.40Q84.20 9.66 84.41 9.93L84.41 9.93L84.41 9.93Q84.62 10.19 84.80 10.49L84.80 10.49L84.80 10.49Q85.23 11.18 85.23 11.70L85.23 11.70L85.23 11.70Q85.23 12.22 85.01 12.57L85.01 12.57L85.01 12.57Q84.79 12.93 84.44 13.18L84.44 13.18L84.44 13.18Q83.70 13.73 82.78 13.73L82.78 13.73L82.78 13.73Q81.89 13.73 81.38 13.31L81.38 13.31L81.38 13.31Q80.96 12.95 80.96 12.47ZM90.84 11.88L90.84 11.88L90.84 11.88Q91.04 11.88 91.04 12.15L91.04 12.15L91.04 12.15Q91.04 12.37 90.90 12.58L90.90 12.58L90.90 12.58Q90.72 12.98 90.17 13.34L90.17 13.34L90.17 13.34Q89.54 13.74 88.90 13.74L88.90 13.74L88.90 13.74Q87.80 13.74 87.51 12.76L87.51 12.76L87.51 12.76Q87.16 11.59 88.55 7.80L88.55 7.80L88.55 7.80Q87.77 7.73 87.70 7.53L87.70 7.53L87.70 7.53Q87.68 7.46 87.68 7.39L87.68 7.39L87.68 7.39Q87.68 7.32 87.74 7.23L87.74 7.23L87.74 7.23Q87.81 7.13 87.91 7.04L87.91 7.04L87.91 7.04Q88.15 6.84 88.40 6.84L88.40 6.84L88.94 6.84L88.94 6.84Q89.67 5.11 89.99 4.87L89.99 4.87L89.99 4.87Q90.14 4.76 90.32 4.76L90.32 4.76L90.32 4.76Q90.51 4.76 90.63 4.81L90.63 4.81L90.63 4.81Q90.75 4.86 90.85 4.95L90.85 4.95L90.85 4.95Q91.07 5.15 91.07 5.41L91.07 5.41L91.07 5.41Q91.07 5.54 90.99 5.72L90.99 5.72L90.48 6.82L90.64 6.82L90.64 6.82Q91.07 6.82 91.33 6.82L91.33 6.82L91.33 6.82Q91.33 6.82 91.72 6.81L91.72 6.81L91.72 6.81Q91.85 6.80 92.04 6.80L92.04 6.80L92.04 6.80Q92.24 6.80 92.24 6.95L92.24 6.95L92.24 6.95Q92.24 7.85 90.10 7.85L90.10 7.85L90.05 7.85L89.58 9.05L89.58 9.05Q88.80 11.18 88.80 12.04L88.80 12.04L88.80 12.04Q88.80 12.28 88.91 12.41L88.91 12.41L88.91 12.41Q89.02 12.54 89.32 12.54L89.32 12.54L89.32 12.54Q89.62 12.54 89.87 12.44L89.87 12.44L89.87 12.44Q90.11 12.34 90.30 12.21L90.30 12.21L90.30 12.21Q90.48 12.09 90.61 11.98L90.61 11.98L90.61 11.98Q90.75 11.88 90.84 11.88ZM92.87 13.21L92.87 13.21L92.87 13.21Q92.58 12.93 92.42 12.51L92.42 12.51L92.42 12.51Q92.25 12.09 92.24 11.52L92.24 11.52L92.24 11.52Q92.24 10.94 92.38 10.36L92.38 10.36L92.38 10.36Q92.53 9.77 92.80 9.22L92.80 9.22L92.80 9.22Q93.07 8.67 93.45 8.20L93.45 8.20L93.45 8.20Q93.83 7.72 94.29 7.36L94.29 7.36L94.29 7.36Q95.29 6.60 96.36 6.60L96.36 6.60L96.36 6.60Q97.77 6.60 98.27 7.83L98.27 7.83L98.27 7.83Q98.62 8.73 98.31 10.00L98.31 10.00L98.31 10.00Q98.02 11.17 97.25 12.15L97.25 12.15L97.25 12.15Q96.50 13.13 95.46 13.54L95.46 13.54L95.46 13.54Q94.94 13.74 94.44 13.74L94.44 13.74L94.44 13.74Q93.94 13.74 93.55 13.61L93.55 13.61L93.55 13.61Q93.15 13.48 92.87 13.21ZM94.17 9.89L94.17 9.89L94.17 9.89Q93.97 10.40 93.85 10.93L93.85 10.93L93.85 10.93Q93.73 11.46 93.73 11.94L93.73 11.94L93.73 11.94Q93.74 12.41 93.88 12.68L93.88 12.68L93.88 12.68Q94.02 12.95 94.34 12.95L94.34 12.95L94.34 12.95Q94.65 12.95 94.95 12.74L94.95 12.74L94.95 12.74Q95.26 12.52 95.55 12.17L95.55 12.17L95.55 12.17Q95.83 11.81 96.09 11.35L96.09 11.35L96.09 11.35Q96.34 10.88 96.53 10.38L96.53 10.38L96.53 10.38Q96.95 9.28 96.93 8.42L96.93 8.42L96.93 8.42Q96.93 7.67 96.63 7.46L96.63 7.46L96.63 7.46Q96.50 7.38 96.28 7.38L96.28 7.38L96.28 7.38Q96.06 7.38 95.77 7.58L95.77 7.58L95.77 7.58Q95.48 7.79 95.20 8.13L95.20 8.13L95.20 8.13Q94.91 8.47 94.64 8.93L94.64 8.93L94.64 8.93Q94.38 9.39 94.17 9.89ZM104.59 7.89L104.59 7.89L104.59 7.89Q104.19 7.89 103.14 9.04L103.14 9.04L103.14 9.04Q102.35 9.93 102.00 10.38L102.00 10.38L101.38 11.16L101.38 11.16Q100.99 11.92 100.76 12.41L100.76 12.41L100.39 13.21L100.39 13.21Q100.25 13.50 100.14 13.62L100.14 13.62L100.14 13.62Q100.04 13.74 99.86 13.74L99.86 13.74L99.86 13.74Q99.67 13.74 99.51 13.68L99.51 13.68L99.51 13.68Q99.34 13.61 99.22 13.51L99.22 13.51L99.22 13.51Q98.96 13.29 98.96 13.03L98.96 13.03L98.96 13.03Q98.96 12.93 99.11 12.63L99.11 12.63L99.37 12.07L99.37 12.07Q99.49 11.83 99.65 11.44L99.65 11.44L100.04 10.51L100.04 10.51Q100.84 8.49 100.84 7.90L100.84 7.90L100.84 7.90Q100.84 7.59 100.64 7.44L100.64 7.44L100.50 7.34L100.50 7.34Q100.43 7.29 100.43 7.17L100.43 7.17L100.43 7.17Q100.43 7.05 100.53 6.95L100.53 6.95L100.53 6.95Q100.62 6.84 100.77 6.75L100.77 6.75L100.77 6.75Q101.08 6.60 101.39 6.60L101.39 6.60L101.39 6.60Q101.70 6.60 101.88 6.67L101.88 6.67L101.88 6.67Q102.05 6.73 102.18 6.85L102.18 6.85L102.18 6.85Q102.44 7.09 102.44 7.35L102.44 7.35L102.44 7.35Q102.44 7.61 102.38 7.87L102.38 7.87L102.38 7.87Q102.31 8.13 102.20 8.40L102.20 8.40L102.20 8.40Q102.10 8.67 101.99 8.93L101.99 8.93L101.99 8.93Q101.71 9.52 101.65 9.65L101.65 9.65L101.65 9.65Q101.58 9.78 101.61 9.75L101.61 9.75L101.61 9.75Q102.86 8.13 103.11 7.83L103.11 7.83L103.11 7.83Q103.64 7.23 103.93 7L103.93 7L103.93 7Q104.47 6.60 104.96 6.60L104.96 6.60L104.96 6.60Q105.44 6.60 105.72 6.90L105.72 6.90L105.72 6.90Q106.01 7.20 106.01 7.69L106.01 7.69L106.01 7.69Q106.01 8.12 105.79 8.70L105.79 8.70L105.79 8.70Q105.57 9.28 105.50 9.52L105.50 9.52L106.50 8.19L107.06 7.52L107.06 7.52Q107.57 6.95 107.95 6.77L107.95 6.77L107.95 6.77Q108.34 6.60 108.58 6.60L108.58 6.60L108.58 6.60Q108.82 6.60 109.06 6.69L109.06 6.69L109.06 6.69Q109.29 6.77 109.46 6.94L109.46 6.94L109.46 6.94Q109.81 7.27 109.81 7.83L109.81 7.83L109.81 7.83Q109.81 8.36 109.56 8.92L109.56 8.92L109.56 8.92Q109.31 9.48 109.13 9.84L109.13 9.84L109.13 9.84Q108.94 10.20 108.77 10.56L108.77 10.56L108.77 10.56Q108.27 11.65 108.27 12.17L108.27 12.17L108.27 12.17Q108.27 12.54 108.58 12.54L108.58 12.54L108.58 12.54Q108.86 12.54 109.10 12.42L109.10 12.42L109.10 12.42Q109.33 12.30 109.40 12.30L109.40 12.30L109.40 12.30Q109.55 12.30 109.55 12.44L109.55 12.44L109.55 12.44Q109.55 13.05 108.92 13.46L108.92 13.46L108.92 13.46Q108.51 13.74 108.16 13.74L108.16 13.74L108.16 13.74Q107.82 13.74 107.60 13.66L107.60 13.66L107.60 13.66Q107.39 13.58 107.22 13.40L107.22 13.40L107.22 13.40Q106.84 13.00 106.84 12.41L106.84 12.41L106.84 12.41Q106.84 11.81 106.99 11.31L106.99 11.31L106.99 11.31Q107.14 10.81 107.34 10.35L107.34 10.35L107.34 10.35Q107.55 9.88 107.76 9.48L107.76 9.48L107.76 9.48Q107.97 9.09 108.08 8.86L108.08 8.86L108.08 8.86Q108.29 8.38 108.29 8.16L108.29 8.16L108.29 8.16Q108.29 7.89 108.01 7.89L108.01 7.89L108.01 7.89Q107.65 7.89 106.69 9.11L106.69 9.11L106.69 9.11Q105.96 10.06 105.68 10.48L105.68 10.48L105.21 11.16L105.21 11.16Q104.82 11.92 104.60 12.41L104.60 12.41L104.25 13.21L104.25 13.21Q104.13 13.50 104.03 13.62L104.03 13.62L104.03 13.62Q103.93 13.74 103.76 13.74L103.76 13.74L103.76 13.74Q103.59 13.74 103.43 13.69L103.43 13.69L103.43 13.69Q103.27 13.63 103.15 13.54L103.15 13.54L103.15 13.54Q102.89 13.34 102.89 13.12L102.89 13.12L102.89 13.12Q102.89 12.90 103.03 12.51L103.03 12.51L103.03 12.51Q103.18 12.13 103.40 11.65L103.40 11.65L104.36 9.63L104.36 9.63Q104.87 8.50 104.87 8.19L104.87 8.19L104.87 8.19Q104.87 7.89 104.59 7.89ZM105.27 9.82L105.27 9.82L105.27 9.82Q105.27 9.82 105.27 9.81L105.27 9.81L105.28 9.80L105.28 9.80Q105.27 9.81 105.27 9.82ZM117.97 12.23L117.07 13.53L117.07 13.53Q116.94 13.73 116.59 13.73L116.59 13.73L116.59 13.73Q116.25 13.73 116.01 13.54L116.01 13.54L116.01 13.54Q115.77 13.34 115.61 13.06L115.61 13.06L115.61 13.06Q115.29 12.48 115.29 11.91L115.29 11.91L115.29 11.91Q115.29 11.33 115.42 10.73L115.42 10.73L115.42 10.73Q115.55 10.13 115.77 9.46L115.77 9.46L115.77 9.46Q115.99 8.80 116.28 8.10L116.28 8.10L116.28 8.10Q116.57 7.40 116.89 6.74L116.89 6.74L116.89 6.74Q117.56 5.36 118.23 4.35L118.23 4.35L118.15 4.35L118.15 4.35Q117.34 4.35 116.64 4.72L116.64 4.72L116.64 4.72Q116.47 4.85 116.31 4.85L116.31 4.85L116.31 4.85Q115.99 4.85 115.68 4.53L115.68 4.53L115.68 4.53Q114.97 3.77 116.53 3.28L116.53 3.28L116.53 3.28Q117.26 3.04 117.70 3.04L117.70 3.04L117.70 3.04Q118.15 3.04 118.43 3.18L118.43 3.18L118.43 3.18Q118.70 3.32 118.89 3.51L118.89 3.51L118.89 3.51Q119.19 3.81 119.32 4.11L119.32 4.11L119.32 4.11Q119.44 4.40 119.44 4.62L119.44 4.62L119.44 4.62Q119.44 4.85 119.31 5.22L119.31 5.22L119.31 5.22Q119.18 5.59 118.97 6.02L118.97 6.02L118.51 6.92L118.51 6.92Q118.26 7.39 118.02 7.91L118.02 7.91L118.02 7.91Q117.77 8.43 117.52 8.95L117.52 8.95L117.52 8.95Q117.28 9.47 117.09 9.96L117.09 9.96L117.09 9.96Q116.67 11.06 116.67 11.83L116.67 11.83L116.67 11.83Q116.67 12.25 116.75 12.56L116.75 12.56L117.47 11.36L117.47 11.36Q119.66 7.83 121.79 6.06L121.79 6.06L121.79 6.06Q122.39 5.55 122.98 5.26L122.98 5.26L122.98 5.26Q123.07 5.22 123.20 5.22L123.20 5.22L123.20 5.22Q123.33 5.22 123.48 5.25L123.48 5.25L123.48 5.25Q123.63 5.28 123.76 5.34L123.76 5.34L123.76 5.34Q124.06 5.48 124.06 5.69L124.06 5.69L124.06 5.69Q124.06 5.78 123.99 5.87L123.99 5.87L123.75 6.13L123.75 6.13Q122.38 7.57 121.91 10.17L121.91 10.17L121.91 10.17Q121.76 10.97 121.76 11.44L121.76 11.44L121.76 11.44Q121.76 11.91 121.79 12.08L121.79 12.08L121.79 12.08Q121.82 12.25 121.90 12.40L121.90 12.40L121.90 12.40Q122.08 12.74 122.45 12.74L122.45 12.74L122.45 12.74Q122.82 12.74 123.27 12.47L123.27 12.47L123.27 12.47Q123.72 12.20 124.19 11.72L124.19 11.72L124.19 11.72Q124.65 11.24 125.08 10.59L125.08 10.59L125.08 10.59Q125.51 9.95 125.85 9.21L125.85 9.21L125.85 9.21Q126.60 7.57 126.60 6.09L126.60 6.09L126.60 6.09Q126.60 4.95 126.10 4.16L126.10 4.16L126.10 4.16Q125.96 3.95 126.36 3.62L126.36 3.62L126.36 3.62Q126.77 3.28 127.29 3.28L127.29 3.28L127.29 3.28Q127.96 3.28 128.20 4.48L128.20 4.48L128.20 4.48Q128.28 4.88 128.28 5.52L128.28 5.52L128.28 5.52Q128.28 6.17 128.13 6.94L128.13 6.94L128.13 6.94Q127.97 7.71 127.69 8.45L127.69 8.45L127.69 8.45Q127.40 9.18 127.02 9.86L127.02 9.86L127.02 9.86Q126.63 10.53 126.17 11.12L126.17 11.12L126.17 11.12Q125.71 11.71 125.20 12.19L125.20 12.19L125.20 12.19Q124.69 12.67 124.15 13.02L124.15 13.02L124.15 13.02Q123.05 13.74 122.07 13.74L122.07 13.74L122.07 13.74Q121.17 13.74 120.72 13.03L120.72 13.03L120.72 13.03Q120.33 12.41 120.33 11.46L120.33 11.46L120.33 11.46Q120.33 9.89 120.94 8.41L120.94 8.41L120.94 8.41Q120.37 9.04 119.83 9.72L119.83 9.72L119.83 9.72Q118.49 11.47 117.97 12.23L117.97 12.23ZM128.95 13.21L128.95 13.21L128.95 13.21Q128.67 12.93 128.50 12.51L128.50 12.51L128.50 12.51Q128.34 12.09 128.33 11.52L128.33 11.52L128.33 11.52Q128.32 10.94 128.47 10.36L128.47 10.36L128.47 10.36Q128.62 9.77 128.89 9.22L128.89 9.22L128.89 9.22Q129.16 8.67 129.54 8.20L129.54 8.20L129.54 8.20Q129.92 7.72 130.38 7.36L130.38 7.36L130.38 7.36Q131.37 6.60 132.45 6.60L132.45 6.60L132.45 6.60Q133.85 6.60 134.35 7.83L134.35 7.83L134.35 7.83Q134.71 8.73 134.39 10.00L134.39 10.00L134.39 10.00Q134.11 11.17 133.34 12.15L133.34 12.15L133.34 12.15Q132.58 13.13 131.55 13.54L131.55 13.54L131.55 13.54Q131.03 13.74 130.53 13.74L130.53 13.74L130.53 13.74Q130.03 13.74 129.63 13.61L129.63 13.61L129.63 13.61Q129.24 13.48 128.95 13.21ZM130.26 9.89L130.26 9.89L130.26 9.89Q130.05 10.40 129.93 10.93L129.93 10.93L129.93 10.93Q129.81 11.46 129.82 11.94L129.82 11.94L129.82 11.94Q129.83 12.41 129.97 12.68L129.97 12.68L129.97 12.68Q130.11 12.95 130.42 12.95L130.42 12.95L130.42 12.95Q130.74 12.95 131.04 12.74L131.04 12.74L131.04 12.74Q131.35 12.52 131.63 12.17L131.63 12.17L131.63 12.17Q131.92 11.81 132.17 11.35L132.17 11.35L132.17 11.35Q132.43 10.88 132.62 10.38L132.62 10.38L132.62 10.38Q133.03 9.28 133.02 8.42L133.02 8.42L133.02 8.42Q133.02 7.67 132.71 7.46L132.71 7.46L132.71 7.46Q132.59 7.38 132.37 7.38L132.37 7.38L132.37 7.38Q132.15 7.38 131.86 7.58L131.86 7.58L131.86 7.58Q131.57 7.79 131.28 8.13L131.28 8.13L131.28 8.13Q131.00 8.47 130.73 8.93L130.73 8.93L130.73 8.93Q130.46 9.39 130.26 9.89ZM136.15 13.21L136.15 13.21L136.15 13.21Q135.86 12.93 135.70 12.51L135.70 12.51L135.70 12.51Q135.54 12.09 135.53 11.52L135.53 11.52L135.53 11.52Q135.52 10.94 135.67 10.36L135.67 10.36L135.67 10.36Q135.82 9.77 136.09 9.22L136.09 9.22L136.09 9.22Q136.36 8.67 136.74 8.20L136.74 8.20L136.74 8.20Q137.12 7.72 137.57 7.36L137.57 7.36L137.57 7.36Q138.57 6.60 139.64 6.60L139.64 6.60L139.64 6.60Q141.05 6.60 141.55 7.83L141.55 7.83L141.55 7.83Q141.91 8.73 141.59 10.00L141.59 10.00L141.59 10.00Q141.31 11.17 140.54 12.15L140.54 12.15L140.54 12.15Q139.78 13.13 138.75 13.54L138.75 13.54L138.75 13.54Q138.23 13.74 137.73 13.74L137.73 13.74L137.73 13.74Q137.22 13.74 136.83 13.61L136.83 13.61L136.83 13.61Q136.44 13.48 136.15 13.21ZM137.46 9.89L137.46 9.89L137.46 9.89Q137.25 10.40 137.13 10.93L137.13 10.93L137.13 10.93Q137.01 11.46 137.02 11.94L137.02 11.94L137.02 11.94Q137.03 12.41 137.17 12.68L137.17 12.68L137.17 12.68Q137.31 12.95 137.62 12.95L137.62 12.95L137.62 12.95Q137.94 12.95 138.24 12.74L138.24 12.74L138.24 12.74Q138.54 12.52 138.83 12.17L138.83 12.17L138.83 12.17Q139.12 11.81 139.37 11.35L139.37 11.35L139.37 11.35Q139.62 10.88 139.82 10.38L139.82 10.38L139.82 10.38Q140.23 9.28 140.22 8.42L140.22 8.42L140.22 8.42Q140.22 7.67 139.91 7.46L139.91 7.46L139.91 7.46Q139.79 7.38 139.57 7.38L139.57 7.38L139.57 7.38Q139.34 7.38 139.06 7.58L139.06 7.58L139.06 7.58Q138.77 7.79 138.48 8.13L138.48 8.13L138.48 8.13Q138.20 8.47 137.93 8.93L137.93 8.93L137.93 8.93Q137.66 9.39 137.46 9.89ZM149.55 12.29L149.55 12.29L149.55 12.29Q149.69 12.29 149.69 12.44L149.69 12.44L149.69 12.44Q149.69 13.03 149.08 13.45L149.08 13.45L149.08 13.45Q148.68 13.74 148.32 13.74L148.32 13.74L148.32 13.74Q147.96 13.74 147.75 13.66L147.75 13.66L147.75 13.66Q147.54 13.58 147.37 13.40L147.37 13.40L147.37 13.40Q146.99 12.99 146.99 12.27L146.99 12.27L146.99 12.27Q146.99 12.13 147.04 11.81L147.04 11.81L147.04 11.81Q146.49 12.67 146.09 13.02L146.09 13.02L146.09 13.02Q145.29 13.74 144.53 13.74L144.53 13.74L144.53 13.74Q143.32 13.74 142.94 12.65L142.94 12.65L142.94 12.65Q142.80 12.24 142.80 11.63L142.80 11.63L142.80 11.63Q142.80 11.03 142.99 10.40L142.99 10.40L142.99 10.40Q143.17 9.78 143.49 9.22L143.49 9.22L143.49 9.22Q143.81 8.66 144.23 8.18L144.23 8.18L144.23 8.18Q144.65 7.70 145.11 7.34L145.11 7.34L145.11 7.34Q146.11 6.60 146.92 6.60L146.92 6.60L146.92 6.60Q147.72 6.60 148.21 7.25L148.21 7.25L148.21 7.25Q149.40 3.18 150.00 2.45L150.00 2.45L150.00 2.45Q150.25 2.15 150.53 2.15L150.53 2.15L150.53 2.15Q151.00 2.15 151.24 2.41L151.24 2.41L151.24 2.41Q151.31 2.50 151.31 2.59L151.31 2.59L151.31 2.59Q151.31 2.68 151.20 2.92L151.20 2.92L151.20 2.92Q151.09 3.16 150.88 3.69L150.88 3.69L150.88 3.69Q150.27 5.30 150.03 6.04L150.03 6.04L150.03 6.04Q149.40 7.95 149.18 8.67L149.18 8.67L148.80 9.93L148.80 9.93Q148.32 11.62 148.32 12.08L148.32 12.08L148.32 12.08Q148.32 12.54 148.65 12.54L148.65 12.54L148.65 12.54Q148.96 12.54 149.15 12.46L149.15 12.46L149.41 12.33L149.41 12.33Q149.48 12.29 149.55 12.29ZM144.85 12.71L144.85 12.71L144.85 12.71Q145.56 12.71 146.47 11.34L146.47 11.34L146.47 11.34Q147.42 9.92 147.79 8.24L147.79 8.24L147.79 8.24Q147.77 7.78 147.40 7.56L147.40 7.56L147.40 7.56Q147.28 7.49 147.03 7.49L147.03 7.49L147.03 7.49Q146.78 7.49 146.45 7.67L146.45 7.67L146.45 7.67Q146.12 7.85 145.81 8.16L145.81 8.16L145.81 8.16Q145.50 8.46 145.23 8.88L145.23 8.88L145.23 8.88Q144.96 9.29 144.76 9.75L144.76 9.75L144.76 9.75Q144.33 10.77 144.33 11.74L144.33 11.74L144.33 11.74Q144.33 12.71 144.85 12.71ZM152.79 12.89L152.79 12.89L152.79 12.89Q151.85 13.71 151.32 13.71L151.32 13.71L151.32 13.71Q150.79 13.71 150.59 13.17L150.59 13.17L150.59 13.17Q150.51 12.97 150.51 12.81L150.51 12.81L150.51 12.81Q150.51 12.37 150.65 11.95L150.65 11.95L150.65 11.95Q150.79 11.53 150.93 11.17L150.93 11.17L151.53 9.62L151.53 9.62Q151.88 8.67 151.96 8.29L151.96 8.29L151.96 8.29Q152.03 7.92 151.94 7.78L151.94 7.78L151.94 7.78Q151.84 7.65 151.71 7.55L151.71 7.55L151.71 7.55Q151.59 7.45 151.47 7.37L151.47 7.37L151.47 7.37Q151.36 7.29 151.36 7.17L151.36 7.17L151.36 7.17Q151.36 7.05 151.46 6.95L151.46 6.95L151.46 6.95Q151.56 6.84 151.72 6.75L151.72 6.75L151.72 6.75Q152.05 6.60 152.40 6.60L152.40 6.60L152.40 6.60Q152.76 6.60 152.96 6.67L152.96 6.67L152.96 6.67Q153.16 6.74 153.29 6.85L153.29 6.85L153.29 6.85Q153.54 7.08 153.54 7.39L153.54 7.39L153.54 7.39Q153.54 7.71 153.44 8.11L153.44 8.11L153.44 8.11Q153.33 8.50 153.17 8.95L153.17 8.95L153.17 8.95Q153.01 9.39 152.81 9.87L152.81 9.87L152.43 10.81L152.43 10.81Q151.99 11.96 151.89 12.52L151.89 12.52L151.89 12.52Q152.54 12.30 153.60 10.95L153.60 10.95L153.60 10.95Q154.75 9.47 155.64 7.57L155.64 7.57L155.64 7.57Q155.74 7.33 155.89 7.26L155.89 7.26L155.89 7.26Q156.14 7.14 156.52 7.16L156.52 7.16L156.52 7.16Q157.11 7.18 157.13 7.53L157.13 7.53L157.13 7.53Q157.14 7.74 157.02 7.99L157.02 7.99L157.02 7.99Q156.89 8.25 156.81 8.42L156.81 8.42L156.54 8.97L156.54 8.97Q155.74 10.59 155.74 11.60L155.74 11.60L155.74 11.60Q155.74 12.30 156.13 12.56L156.13 12.56L156.13 12.56Q156.24 12.65 156.46 12.65L156.46 12.65L156.46 12.65Q156.69 12.65 156.99 12.49L156.99 12.49L156.99 12.49Q157.30 12.33 157.58 12.04L157.58 12.04L157.58 12.04Q157.86 11.76 158.10 11.39L158.10 11.39L158.10 11.39Q158.35 11.02 158.53 10.60L158.53 10.60L158.53 10.60Q158.90 9.70 158.90 9.01L158.90 9.01L158.90 9.01Q158.90 7.83 158.46 7.27L158.46 7.27L158.46 7.27Q158.31 7.09 158.55 6.85L158.55 6.85L158.55 6.85Q158.80 6.60 159.34 6.60L159.34 6.60L159.34 6.60Q160.00 6.60 160.24 7.34L160.24 7.34L160.24 7.34Q160.34 7.62 160.34 8.18L160.34 8.18L160.34 8.18Q160.34 8.74 160.14 9.43L160.14 9.43L160.14 9.43Q159.94 10.12 159.60 10.75L159.60 10.75L159.60 10.75Q159.26 11.38 158.82 11.93L158.82 11.93L158.82 11.93Q158.38 12.48 157.90 12.88L157.90 12.88L157.90 12.88Q156.86 13.74 155.97 13.74L155.97 13.74L155.97 13.74Q154.44 13.74 154.44 11.77L154.44 11.77L154.44 11.77Q154.44 11.32 154.53 10.89L154.53 10.89L154.53 10.89Q153.72 12.07 152.79 12.89ZM161.66 13.21L161.66 13.21L161.66 13.21Q161.38 12.93 161.21 12.51L161.21 12.51L161.21 12.51Q161.05 12.09 161.04 11.52L161.04 11.52L161.04 11.52Q161.03 10.94 161.18 10.36L161.18 10.36L161.18 10.36Q161.33 9.77 161.60 9.22L161.60 9.22L161.60 9.22Q161.87 8.67 162.25 8.20L162.25 8.20L162.25 8.20Q162.63 7.72 163.08 7.36L163.08 7.36L163.08 7.36Q164.08 6.60 165.16 6.60L165.16 6.60L165.16 6.60Q166.56 6.60 167.06 7.83L167.06 7.83L167.06 7.83Q167.42 8.73 167.10 10.00L167.10 10.00L167.10 10.00Q166.82 11.17 166.05 12.15L166.05 12.15L166.05 12.15Q165.29 13.13 164.26 13.54L164.26 13.54L164.26 13.54Q163.74 13.74 163.24 13.74L163.24 13.74L163.24 13.74Q162.74 13.74 162.34 13.61L162.34 13.61L162.34 13.61Q161.95 13.48 161.66 13.21ZM162.97 9.89L162.97 9.89L162.97 9.89Q162.76 10.40 162.64 10.93L162.64 10.93L162.64 10.93Q162.52 11.46 162.53 11.94L162.53 11.94L162.53 11.94Q162.54 12.41 162.68 12.68L162.68 12.68L162.68 12.68Q162.82 12.95 163.13 12.95L163.13 12.95L163.13 12.95Q163.45 12.95 163.75 12.74L163.75 12.74L163.75 12.74Q164.06 12.52 164.34 12.17L164.34 12.17L164.34 12.17Q164.63 11.81 164.88 11.35L164.88 11.35L164.88 11.35Q165.14 10.88 165.33 10.38L165.33 10.38L165.33 10.38Q165.74 9.28 165.73 8.42L165.73 8.42L165.73 8.42Q165.73 7.67 165.42 7.46L165.42 7.46L165.42 7.46Q165.30 7.38 165.08 7.38L165.08 7.38L165.08 7.38Q164.86 7.38 164.57 7.58L164.57 7.58L164.57 7.58Q164.28 7.79 163.99 8.13L163.99 8.13L163.99 8.13Q163.71 8.47 163.44 8.93L163.44 8.93L163.44 8.93Q163.17 9.39 162.97 9.89ZM168.25 13.51L168.25 13.51L168.25 13.51Q168.12 13.41 168.03 13.28L168.03 13.28L168.03 13.28Q167.95 13.15 167.95 13.06L167.95 13.06L167.95 13.06Q167.94 12.97 167.98 12.83L167.98 12.83L167.98 12.83Q168.03 12.70 168.10 12.51L168.10 12.51L168.10 12.51Q169.50 9.08 169.50 7.90L169.50 7.90L169.50 7.90Q169.48 7.57 169.27 7.44L169.27 7.44L169.13 7.34L169.13 7.34Q169.07 7.29 169.07 7.17L169.07 7.17L169.07 7.17Q169.07 7.05 169.16 6.95L169.16 6.95L169.16 6.95Q169.24 6.84 169.39 6.75L169.39 6.75L169.39 6.75Q169.68 6.60 169.99 6.60L169.99 6.60L169.99 6.60Q170.30 6.60 170.48 6.67L170.48 6.67L170.48 6.67Q170.65 6.73 170.78 6.85L170.78 6.85L170.78 6.85Q171.04 7.10 171.04 7.37L171.04 7.37L171.04 7.37Q171.04 7.64 170.98 7.92L170.98 7.92L170.98 7.92Q170.91 8.20 170.82 8.47L170.82 8.47L170.82 8.47Q170.73 8.74 170.65 8.99L170.65 8.99L170.65 8.99Q170.56 9.23 170.53 9.34L170.53 9.34L170.53 9.34Q170.47 9.58 170.49 9.65L170.49 9.65L170.49 9.65Q170.65 9.50 170.69 9.37L170.69 9.37L170.95 8.86L170.95 8.86Q171.84 7.26 172.69 6.74L172.69 6.74L172.69 6.74Q172.94 6.60 173.28 6.60L173.28 6.60L173.28 6.60Q173.63 6.60 173.84 6.84L173.84 6.84L173.84 6.84Q174.05 7.08 174.06 7.38L174.06 7.38L174.06 7.38Q174.07 7.67 174.02 7.86L174.02 7.86L174.02 7.86Q173.97 8.06 173.87 8.23L173.87 8.23L173.87 8.23Q173.64 8.61 173.32 8.61L173.32 8.61L173.32 8.61Q173.23 8.61 173.15 8.55L173.15 8.55L173.00 8.42L173.00 8.42Q172.78 8.22 172.57 8.22L172.57 8.22L172.57 8.22Q172.36 8.22 172.06 8.50L172.06 8.50L172.06 8.50Q171.77 8.77 171.45 9.20L171.45 9.20L171.45 9.20Q170.37 10.63 169.68 12.40L169.68 12.40L169.38 13.19L169.38 13.19Q169.26 13.49 169.18 13.61L169.18 13.61L169.18 13.61Q169.09 13.74 168.91 13.74L168.91 13.74L168.91 13.74Q168.74 13.74 168.56 13.68L168.56 13.68L168.56 13.68Q168.39 13.61 168.25 13.51ZM178.47 13.73L178.47 13.73L178.47 13.73Q176.91 13.73 175.99 10.79L175.99 10.79L175.99 10.79Q175.63 11.46 175.39 12.00L175.39 12.00L174.98 12.93L174.98 12.93Q174.80 13.32 174.65 13.53L174.65 13.53L174.65 13.53Q174.49 13.74 174.30 13.74L174.30 13.74L174.30 13.74Q174.11 13.74 173.95 13.68L173.95 13.68L173.95 13.68Q173.80 13.61 173.68 13.51L173.68 13.51L173.68 13.51Q173.44 13.29 173.44 13.03L173.44 13.03L173.44 13.03Q173.44 12.93 173.58 12.63L173.58 12.63L173.86 12.07L173.86 12.07Q175.14 9.44 176.18 5.40L176.18 5.40L176.18 5.40Q176.56 3.91 176.73 2.72L176.73 2.72L176.73 2.72Q176.80 2.15 177.29 2.15L177.29 2.15L177.29 2.15Q177.58 2.15 177.77 2.30L177.77 2.30L177.77 2.30Q178.14 2.59 178.12 2.93L178.12 2.93L178.12 2.93Q178.11 3.27 178.03 3.69L178.03 3.69L178.03 3.69Q177.95 4.12 177.82 4.62L177.82 4.62L177.82 4.62Q177.69 5.12 177.53 5.67L177.53 5.67L177.53 5.67Q177.08 7.10 176.87 7.70L176.87 7.70L176.22 9.47L176.22 9.47Q176.10 9.79 176.03 9.93L176.03 9.93L176.03 9.93Q177.62 9.30 178.41 8.51L178.41 8.51L178.41 8.51Q178.89 8.03 178.89 7.62L178.89 7.62L178.89 7.62Q178.89 7.40 178.75 7.31L178.75 7.31L178.75 7.31Q178.61 7.21 178.56 7.16L178.56 7.16L178.56 7.16Q178.51 7.11 178.55 6.98L178.55 6.98L178.55 6.98Q178.60 6.84 178.81 6.72L178.81 6.72L178.81 6.72Q179.02 6.60 179.32 6.60L179.32 6.60L179.32 6.60Q179.62 6.60 179.82 6.65L179.82 6.65L179.82 6.65Q180.02 6.71 180.17 6.82L180.17 6.82L180.17 6.82Q180.51 7.06 180.51 7.50L180.51 7.50L180.51 7.50Q180.51 7.94 180.33 8.30L180.33 8.30L180.33 8.30Q180.14 8.67 179.75 9.01L179.75 9.01L179.75 9.01Q178.98 9.67 177.28 10.28L177.28 10.28L177.28 10.28Q177.49 11.19 178.06 11.88L178.06 11.88L178.06 11.88Q178.60 12.54 179.05 12.54L179.05 12.54L179.05 12.54Q179.29 12.54 179.46 12.46L179.46 12.46L179.70 12.33L179.70 12.33Q179.78 12.29 179.85 12.29L179.85 12.29L179.85 12.29Q180.02 12.29 180.02 12.50L180.02 12.50L180.02 12.50Q180.02 12.67 179.96 12.81L179.96 12.81L179.96 12.81Q179.89 12.94 179.78 13.09L179.78 13.09L179.78 13.09Q179.67 13.24 179.49 13.38L179.49 13.38L179.49 13.38Q179.05 13.73 178.47 13.73Z"></path></g><!----><!----></svg>